# xmcd
#
# Track frame offsets:
#	150
#	9707
#	22562
#	34659
#	48467
#	61204
#	74571
#	89214
#	102512
#	114273
#	126276
#	139266
#	151199
#	160084
#	173754
# Disc length: 2506 seconds
# Revision: 1
# Processed by: cddbd v1.5.2PL0 Copyright (c) Steve Scherf et al.
#
# Submitted via: libkcddb 0.21
#
DISCID=c409c80f
DTITLE=ArtisDivers - Casa do fado
DYEAR=2006
DGENRE=Folk
TTITLE0=Amàlia Rodrigues - A tendinha
TTITLE1=Salgado Armando Freire - Fado estoril
TTITLE2=Joao Braga - Na rua do silencio
TTITLE3=Maria Armanda - Velho marinheiro
TTITLE4=Amàlia Rodrigues - Corria atràs das cantigas
TTITLE5=Salgado Armando Freire - Fado do ciume
TTITLE6=Adelina Fernandes - Quem canta
TTITLE7=Amàlia Rodrigues - Passei por vocè
TTITLE8=Rodrigo Costa Félix - Amàlia
TTITLE9=Madalena de Melo - Divinisado
TTITLE10=Amàlia Rodrigues - Sei finalmente
TTITLE11=Salgado Armando Freire - Olhos bonitos
TTITLE12=Maria Dilar - A janela do meu peito
TTITLE13=Miguel Capucho - Biografia do fado
TTITLE14=Amàlia Rodrigues - As penas
EXTD=CD1
EXTT0=
EXTT1=
EXTT2=
EXTT3=
EXTT4=
EXTT5=
EXTT6=
EXTT7=
EXTT8=
EXTT9=
EXTT10=
EXTT11=
EXTT12=
EXTT13=
EXTT14=
PLAYORDER=
